<?xml version="1.0" encoding="utf-8"?>
<?xml-stylesheet type="text/xsl" href="rss1.xsl"?>
<rss version="2.0" xmlns:atom="http://www.w3.org/2005/Atom" xmlns:content="http://purl.org/rss/1.0/modules/content/" xmlns:dc="http://purl.org/dc/elements/1.1/" xmlns:media="http://search.yahoo.com/mrss/">
<channel>
 <title>Getty</title>
 <link>http://www.gettyimg.com/</link>
 <atom:link href="http://www.gettyimg.com/" rel="self" type="application/rss+xml" />

 
                <item>
                <title><![CDATA[【Requests】[REQ AUD] - Jimmy Brown]]></title>
                <link><![CDATA[https://sharemania.us/threads/jimmy-brown.250647/]]></link>
                <description><![CDATA[<article>
<blockquote class="messageText SelectQuoteContainer ugc baseHtml">
Jimmy Brown - Irene Flac 24Bit
<div class="messageTextEndMarker">&nbsp;</div>
</blockquote>
</article>]]></description>
                <author><![CDATA[hand taehyung]]></author>
                </item>

                
                <item>
                <title><![CDATA[【Apple Music】WEB-RiP - Ludacris - Act a Fool (1080p)]]></title>
                <link><![CDATA[https://sharemania.us/threads/ludacris-act-a-fool-1080p.250646/]]></link>
                <description><![CDATA[<article>
<blockquote class="messageText SelectQuoteContainer ugc baseHtml">
<img src="https://i.postimg.cc/CLtwHRfN/Ludacris-Act-a-Fool-mp4.jpg" class="bbCodeImage LbImage" alt="[​IMG]" data-url="https://i.postimg.cc/CLtwHRfN/Ludacris-Act-a-Fool-mp4.jpg" style=""><br>
<br>
<div class="bbCodeBlock bbCodeCode">
<div class="type">Code:</div>
<pre>General
Complete name                  : G:\Новая папка\Ludacris - Act a Fool.mp4
Format                         : MPEG-4
Format profile                 : Base Media
Codec ID                       : isom (isom/iso2/avc1/mp41)
File size                      : 329 MiB
Duration                       : 4 min 33 s
Overall bit rate               : 10.1 Mb/s
Frame rate                     : 23.976 FPS
Movie name                     : Act a Fool
Performer                      : Ludacris
Genre                          : Hip-Hop/Rap
ContentType                    : Music Video
Recorded date                  : 2004-01-01 08:00:00 UTC
Writing application            : Lavf56.30.100
Copyright                      : ℗ 2003 The Island Def Jam Music Group

Video
ID                             : 1
Format                         : AVC
Format/Info                    : Advanced Video Codec
Format profile                 : High@L4
Format settings                : CABAC / 5 Ref Frames
Format settings, CABAC         : Yes
Format settings, Reference fra : 5 frames
Format settings, Slice count   : 8 slices per frame
Codec ID                       : avc1
Codec ID/Info                  : Advanced Video Coding
Duration                       : 4 min 33 s
Bit rate                       : 9 824 kb/s
Width                          : 1 460 pixels
Height                         : 1 080 pixels
Display aspect ratio           : 4:3
Frame rate mode                : Constant
Frame rate                     : 23.976 (24000/1001) FPS
Color space                    : YUV
Chroma subsampling             : 4:2:0
Bit depth                      : 8 bits
Scan type                      : Progressive
Bits/(Pixel*Frame)             : 0.260
Stream size                    : 321 MiB (97%)
Language                       : English
Color range                    : Limited
Color primaries                : BT.709
Transfer characteristics       : BT.709
Matrix coefficients            : BT.709
Codec configuration box        : avcC

Audio
ID                             : 2
Format                         : AAC LC
Format/Info                    : Advanced Audio Codec Low Complexity
Codec ID                       : mp4a-40-2
Duration                       : 4 min 33 s
Duration_LastFrame             : -7 ms
Bit rate mode                  : Constant
Bit rate                       : 265 kb/s
Channel(s)                     : 2 channels
Channel layout                 : L R
Sampling rate                  : 48.0 kHz
Frame rate                     : 46.875 FPS (1024 SPF)
Compression mode               : Lossy
Stream size                    : 8.59 MiB (3%)
Default                        : Yes
Alternate group                : 1

</pre>
</div>
<div class="bbCodeBlock bbCodeVfcHH HiddenContent">
<div class="attribution type">Hidden Content:</div>
<blockquote>You must either reply or click 'Like' to see the hidden information contained here.</blockquote>
</div>
<div class="messageTextEndMarker">&nbsp;</div>
</blockquote>
</article>]]></description>
                <author><![CDATA[vitalya3]]></author>
                </item>

                </channel></rss>